<?xml version="1.0" standalone="no"?>
<!DOCTYPE svg PUBLIC "-//W3C//DTD SVG 20010904//EN"
 "http://www.w3.org/TR/2001/REC-SVG-20010904/DTD/svg10.dtd">
<svg version="1.0" xmlns="http://www.w3.org/2000/svg"
 width="700.000000pt" height="700.000000pt" viewBox="0 0 700.000000 700.000000"
 preserveAspectRatio="xMidYMid meet">
<metadata>
Created by potrace 1.14, written by Peter Selinger 2001-2017
</metadata>
<g transform="translate(0.000000,700.000000) scale(0.100000,-0.100000)"
fill="#000000" stroke="none">
<path d="M3257 6874 c-1 -1 -47 -4 -102 -7 -115 -7 -238 -24 -385 -53 -75 -14
-290 -75 -381 -107 -274 -97 -554 -251 -799 -441 -124 -95 -350 -318 -439
-431 -34 -44 -68 -87 -74 -95 -66 -83 -209 -321 -272 -455 -94 -199 -192 -493
-218 -650 -3 -16 -10 -57 -16 -90 -44 -242 -50 -688 -11 -870 5 -22 11 -60 15
-85 10 -71 71 -308 104 -402 73 -204 168 -395 289 -578 41 -63 78 -117 81
-120 3 -3 33 -39 66 -80 68 -86 230 -251 325 -332 387 -328 908 -545 1410
-586 158 -12 469 -6 565 12 39 7 91 16 130 22 22 3 43 8 46 10 3 2 21 6 40 9
108 18 313 88 462 158 481 225 849 581 1082 1046 92 182 144 330 188 531 45
200 52 270 52 495 0 203 -13 331 -49 480 -2 11 -9 41 -15 67 -29 128 -106 323
-183 468 -217 405 -568 730 -977 905 -77 32 -243 92 -281 100 -203 46 -233 51
-340 61 -135 13 -371 7 -475 -11 -16 -3 -55 -10 -85 -15 -394 -70 -792 -303
-1061 -622 -192 -227 -343 -558 -385 -845 -3 -26 -9 -57 -11 -68 -9 -39 -11
-331 -2 -405 15 -137 67 -343 108 -435 72 -160 141 -279 212 -368 60 -76 153
-177 162 -177 5 0 23 15 40 34 18 18 100 104 182 190 83 87 151 161 153 165 1
3 -16 26 -38 50 -122 130 -227 340 -256 506 -4 22 -9 49 -11 60 -11 51 -9 260
3 341 14 90 68 281 85 298 5 6 9 16 9 23 0 18 95 179 141 239 193 250 488 425
804 478 90 15 130 18 230 18 128 -1 189 -7 294 -28 176 -36 362 -111 505 -203
77 -49 73 -46 168 -125 183 -153 344 -390 433 -636 101 -281 119 -608 51 -925
-110 -517 -497 -990 -980 -1197 -50 -22 -100 -43 -111 -48 -57 -25 -262 -80
-355 -94 -160 -26 -505 -26 -600 -1 -8 2 -31 6 -50 9 -225 33 -536 156 -745
294 -325 215 -592 537 -738 892 -70 168 -104 291 -142 505 -25 143 -26 501 -1
635 3 14 7 43 10 65 16 107 83 343 132 462 125 302 276 530 493 743 124 122
147 142 259 223 317 227 656 363 1052 421 158 24 568 24 650 1 8 -3 33 -7 55
-10 42 -5 134 -23 245 -49 238 -55 547 -193 778 -348 69 -46 102 -71 191 -143
89 -72 240 -221 300 -295 20 -25 38 -47 41 -50 51 -46 219 -307 290 -449 126
-252 224 -560 254 -801 12 -97 18 -150 21 -195 5 -72 6 -355 0 -390 -2 -16 -6
-59 -9 -95 -7 -71 -14 -131 -21 -170 -3 -14 -8 -41 -11 -60 -11 -69 -73 -297
-107 -395 -75 -216 -209 -476 -340 -659 -49 -69 -215 -285 -304 -395 -24 -30
-43 -60 -41 -67 2 -10 341 -281 466 -372 13 -9 61 -46 106 -82 45 -36 109 -85
142 -110 32 -25 61 -47 64 -50 3 -3 31 -25 63 -49 32 -24 62 -52 67 -61 7 -14
-23 -51 -157 -188 -188 -196 -193 -198 -274 -140 -24 18 -46 35 -49 38 -3 3
-111 90 -240 194 -129 103 -243 194 -254 202 -163 134 -370 294 -380 294 -11
0 -153 -85 -166 -100 -3 -3 -35 -27 -73 -53 -126 -89 -125 -121 3 -217 36 -28
186 -143 325 -251 109 -84 129 -99 220 -169 350 -268 536 -411 577 -446 57
-48 90 -58 136 -39 49 21 420 400 676 690 14 17 40 46 57 65 79 88 119 152
119 189 0 68 -10 80 -139 182 -69 55 -133 105 -141 112 -8 7 -100 79 -205 162
-262 205 -257 201 -242 217 32 32 152 207 223 324 216 358 379 813 430 1199 3
28 8 58 10 68 3 17 11 96 20 192 5 56 5 423 0 460 -2 17 -7 66 -11 110 -4 44
-8 87 -10 95 -2 8 -8 51 -15 95 -12 81 -29 163 -56 268 -9 32 -17 66 -19 75
-6 30 -93 290 -110 329 -9 21 -21 47 -25 58 -12 28 -139 287 -150 305 -63 104
-146 237 -152 245 -5 6 -32 42 -60 80 -29 39 -57 75 -63 82 -5 7 -14 18 -20
25 -71 95 -256 282 -385 392 -134 114 -391 296 -419 296 -5 0 -11 3 -13 8 -6
15 -246 135 -373 187 -123 51 -359 128 -429 141 -15 2 -63 13 -109 24 -45 10
-98 21 -117 23 -19 3 -66 10 -105 16 -103 15 -222 23 -383 25 -78 1 -143 1
-145 0z"/>
</g>
</svg>
